#!OML:ASF F:\VICON\USERDATA\INSTALL\rory3\rory3.ASF
:FULLY-SPECIFIED
:DEGREES
870
root 4.92417 16.5945 1.90988 6.37978 -15.8416 -6.55324
lowerback 20.3124 -0.383766 4.69723
upperback 4.528 0.515366 1.26146
thorax -6.4034 0.162281 -1.44437
lowerneck -14.0758 -0.51042 -2.61806
upperneck 36.9832 0.307019 -1.25711
head 15.3157 -0.485384 -0.0343391
rclavicle -3.21037e-014 -3.37934e-015
rhumerus -34.215 -2.19793 -7.90152
rradius 27.2462
rwrist 12.8198
rhand -23.0784 -49.7752
rfingers 7.12502
rthumb 3.36735 -79.7283
lclavicle -3.21037e-014 -3.37934e-015
lhumerus -32.7724 -0.388907 1.74637
lradius 23.387
lwrist 9.94395
lhand -23.8995 -32.7701
lfingers 7.12502
lthumb 2.57438 -2.80592
rfemur -101.694 1.70445 28.1525
rtibia 97.8769
rfoot 49.4131 2.99536
rtoes -0.169396
lfemur -31.0638 1.76425 -23.4097
ltibia 48.81
lfoot -20.757 12.8863
ltoes 14.2759
871
root 4.92429 16.595 1.91476 6.38887 -15.8307 -6.56022
lowerback 20.2652 -0.401877 4.76463
upperback 4.5315 0.500308 1.22811
thorax -6.37429 0.154608 -1.5146
lowerneck -13.9361 -0.499617 -2.48525
upperneck 36.8952 0.313873 -1.36095
head 15.2394 -0.476581 -0.0994446
rclavicle -7.55382e-014 2.96189e-014
rhumerus -34.2447 -2.02842 -8.08891
rradius 27.4024
rwrist 12.3337
rhand -22.6692 -49.9305
rfingers 7.12502
rthumb 3.76257 -79.8771
lclavicle -7.55382e-014 2.96189e-014
lhumerus -32.7759 -0.363205 1.70778
lradius 23.3598
lwrist 9.88245
lhand -23.7778 -33.2402
lfingers 7.12502
lthumb 2.69196 -3.27746
rfemur -101.691 1.69088 28.1576
rtibia 97.8915
rfoot 49.438 2.91612
rtoes 0.0117931
lfemur -31.0538 1.69283 -23.4106
ltibia 48.8148
lfoot -20.7968 13.0221
ltoes 13.9997
872
root 4.92202 16.595 1.91836 6.42131 -15.9661 -6.73822
lowerback 20.218 -0.37505 4.91869
upperback 4.57814 0.562102 1.24129
thorax -6.29297 0.184349 -1.60304
lowerneck -13.9381 -0.480637 -2.3583
upperneck 36.8015 0.334686 -1.44684
head 15.194 -0.460455 -0.153816
rclavicle 4.27387e-015 3.77691e-015
rhumerus -34.2415 -1.9902 -8.22612
rradius 27.4878
rwrist 12.1687
rhand -22.6611 -50.182
rfingers 7.12502
rthumb 3.77037 -80.1284
lclavicle 4.27387e-015 3.77691e-015
lhumerus -32.7898 -0.382046 1.70511
lradius 23.537
lwrist 10.1451
lhand -23.5352 -32.089
lfingers 7.12502
lthumb 2.9262 -2.12934
rfemur -101.588 1.87903 28.3222
rtibia 97.8768
rfoot 49.4165 2.88935
rtoes 0.233851
lfemur -31.0441 1.78888 -23.2363
ltibia 48.8642
lfoot -20.7575 13.1563
ltoes 13.4893
873
root 4.91895 16.5915 1.92025 6.46014 -16.0622 -6.86735
lowerback 20.1764 -0.350497 5.00937
upperback 4.60187 0.610241 1.26604
thorax -6.24115 0.207727 -1.63957
lowerneck -13.8497 -0.462365 -2.20624
upperneck 36.6338 0.376415 -1.62333
head 15.0922 -0.443003 -0.245949
rclavicle 2.59414e-014 -2.52457e-014
rhumerus -34.2001 -2.18344 -8.23609
rradius 27.5196
rwrist 12.489
rhand -22.2962 -50.4985
rfingers 7.12502
rthumb 4.12279 -80.4383
lclavicle 2.59414e-014 -2.52457e-014
lhumerus -32.803 -0.505426 1.78469
lradius 24.1305
lwrist 10.8788
lhand -22.8197 -27.5624
lfingers 7.12502
lthumb 3.61718 2.38664
rfemur -101.565 2.02322 28.4541
rtibia 97.8894
rfoot 49.3839 3.06883
rtoes 0.163334
lfemur -31.0833 1.83023 -23.1041
ltibia 48.9443
lfoot -20.7186 13.2879
ltoes 13.0743
874
root 4.91632 16.5879 1.92071 6.49004 -16.0445 -6.86347
lowerback 20.1532 -0.354585 4.98429
upperback 4.57421 0.600911 1.28042
thorax -6.26011 0.202948 -1.60746
lowerneck -13.7223 -0.439156 -2.06924
upperneck 36.5695 0.434785 -1.8157
head 15.0321 -0.424445 -0.340048
rclavicle -1.0635e-014 1.33186e-014
rhumerus -34.1982 -2.38941 -8.2133
rradius 27.5794
rwrist 12.8137
rhand -21.7291 -50.8391
rfingers 7.12502
rthumb 4.67031 -80.7676
lclavicle -1.0635e-014 1.33186e-014
lhumerus -32.9482 -0.773189 1.90436
lradius 23.9877
lwrist 10.9048
lhand -23.3368 -28.589
lfingers 7.12502
lthumb 3.1178 1.36798
rfemur -101.638 2.02068 28.4671
rtibia 97.9245
rfoot 49.3261 3.46829
rtoes -0.23166
lfemur -31.1532 1.74703 -23.0967
ltibia 49.0119
lfoot -20.7833 13.3736
ltoes 13.0704
875
root 4.91468 16.586 1.91989 6.51439 -16.0332 -6.84635
lowerback 20.2073 -0.363025 4.95941
upperback 4.55277 0.58997 1.28936
thorax -6.31316 0.196549 -1.5813
lowerneck -13.8418 -0.413724 -1.97793
upperneck 36.6638 0.485313 -1.91009
head 15.1063 -0.405335 -0.389238
rclavicle -2.37548e-014 -9.93923e-015
rhumerus -34.2412 -2.39001 -8.2768
rradius 27.5989
rwrist 12.7123
rhand -22.107 -50.7215
rfingers 7.12502
rthumb 4.30547 -80.6577
lclavicle -2.37548e-014 -9.93923e-015
lhumerus -32.9611 -0.644676 1.90436
lradius 24.0988
lwrist 11.0594
lhand -22.8407 -25.6704
lfingers 7.12502
lthumb 3.59695 4.279
rfemur -101.695 2.01041 28.4652
rtibia 97.9428
rfoot 49.278 3.83854
rtoes -0.336108
lfemur -31.2008 1.70423 -23.1066
ltibia 49.036
lfoot -20.822 13.3982
ltoes 13.3521
876
root 4.91329 16.5851 1.92187 6.41467 -16.0039 -6.74153
lowerback 20.3252 -0.355229 4.90783
upperback 4.63268 0.591521 1.27328
thorax -6.289 0.199231 -1.57025
lowerneck -14.302 -0.418701 -1.88934
upperneck 36.8915 0.492842 -1.96606
head 15.3265 -0.401895 -0.432191
rclavicle -4.17448e-015 1.09332e-014
rhumerus -34.2632 -2.56614 -8.26653
rradius 27.5061
rwrist 12.7384
rhand -22.6855 -50.0625
rfingers 7.12502
rthumb 3.74677 -80.0093
lclavicle -4.17448e-015 1.09332e-014
lhumerus -32.9406 -0.387907 1.95318
lradius 24.0265
lwrist 10.5248
lhand -23.5235 -27.5882
lfingers 7.12502
lthumb 2.9375 2.37134
rfemur -101.662 1.93014 28.3822
rtibia 98.0087
rfoot 49.2575 3.97384
rtoes 0.105683
lfemur -31.0988 1.69373 -23.2174
ltibia 49.0072
lfoot -20.7823 13.466
ltoes 13.2596
877
root 4.91189 16.5862 1.92505 6.30391 -15.9706 -6.65384
lowerback 20.3781 -0.353013 4.86496
upperback 4.6923 0.585656 1.2706
thorax -6.25312 0.198374 -1.54753
lowerneck -14.4581 -0.422278 -1.91459
upperneck 36.9926 0.486948 -1.92341
head 15.4131 -0.403653 -0.412593
rclavicle 1.04362e-014 4.35338e-014
rhumerus -34.2554 -2.71218 -8.22841
rradius 27.4448
rwrist 12.7866
rhand -23.1207 -49.65
rfingers 7.12502
rthumb 3.3265 -79.6038
lclavicle 1.04362e-014 4.35338e-014
lhumerus -32.9776 -0.291009 2.01579
lradius 24.0163
lwrist 10.4548
lhand -23.6071 -28.773
lfingers 7.12502
lthumb 2.8568 1.18764
rfemur -101.59 1.84627 28.3082
rtibia 98.0761
rfoot 49.2944 3.88985
rtoes 0.719637
lfemur -30.9608 1.65563 -23.31
ltibia 48.9612
lfoot -20.713 13.5902
ltoes 12.8666
878
root 4.91072 16.5876 1.92589 6.2914 -15.9637 -6.65752
lowerback 20.4423 -0.358066 4.86125
upperback 4.61557 0.588832 1.3064
thorax -6.37061 0.196637 -1.50806
lowerneck -14.1732 -0.395871 -2.01749
upperneck 36.9246 0.517985 -1.84851
head 15.3116 -0.392907 -0.355306
rclavicle -2.9122e-014 -2.5842e-014
rhumerus -34.2896 -2.36463 -8.28131
rradius 27.5402
rwrist 12.5599
rhand -23.3943 -49.7335
rfingers 7.12502
rthumb 3.06231 -79.6913
lclavicle -2.9122e-014 -2.5842e-014
lhumerus -33.0728 -0.566278 2.15606
lradius 24.168
lwrist 10.9784
lhand -23.1756 -26.1966
lfingers 7.12502
lthumb 3.27348 3.75805
rfemur -101.555 1.82799 28.3182
rtibia 98.095
rfoot 49.3219 3.85929
rtoes 0.777121
lfemur -30.92 1.64657 -23.3104
ltibia 48.9306
lfoot -20.6158 13.6645
ltoes 12.7106
879
root 4.90884 16.5878 1.92497 6.29343 -15.9448 -6.66512
lowerback 20.5777 -0.340527 4.85222
upperback 4.5069 0.626526 1.34382
thorax -6.55864 0.209752 -1.47295
lowerneck -13.9944 -0.432932 -2.19014
upperneck 36.9099 0.435931 -1.6549
head 15.261 -0.423916 -0.255659
rclavicle -6.16232e-015 6.75868e-015
rhumerus -34.3883 -2.06419 -8.27957
rradius 27.5959
rwrist 12.5286
rhand -23.2133 -49.7494
rfingers 7.12502
rthumb 3.23711 -79.7045
lclavicle -6.16232e-015 6.75868e-015
lhumerus -33.1342 -0.947675 2.33986
lradius 23.7724
lwrist 10.865
lhand -23.883 -29.4043
lfingers 7.12502
lthumb 2.59033 0.559712
rfemur -101.539 1.82363 28.3134
rtibia 98.1174
rfoot 49.3272 3.70273
rtoes 0.697014
lfemur -30.9114 1.63247 -23.2995
ltibia 48.9236
lfoot -20.6077 13.6663
ltoes 12.906
880
root 4.90807 16.5872 1.92596 6.26933 -15.9402 -6.57219
lowerback 20.5926 -0.317506 4.79119
upperback 4.48044 0.644055 1.31706
thorax -6.59487 0.218078 -1.4718
lowerneck -13.9628 -0.492895 -2.30681
upperneck 36.8988 0.305939 -1.4551
head 15.2472 -0.466925 -0.171999
rclavicle -2.97183e-014 -1.19271e-014
rhumerus -34.332 -2.42991 -8.1371
rradius 27.3047
rwrist 12.9187
rhand -23.1608 -49.4614
rfingers 7.12502
rthumb 3.28785 -79.4158
lclavicle -2.97183e-014 -1.19271e-014
lhumerus -33.0676 -0.806843 2.31414
lradius 23.8465
lwrist 10.8359
lhand -24.2648 -31.7845
lfingers 7.12502
lthumb 2.22159 -1.8163
rfemur -101.566 1.77847 28.2154
rtibia 98.1767
rfoot 49.4669 3.35393
rtoes 1.11169
lfemur -30.9114 1.57842 -23.3965
ltibia 48.928
lfoot -20.6496 13.6784
ltoes 12.9842
881
root 4.90888 16.5854 1.93035 6.26292 -15.9278 -6.49436
lowerback 20.4796 -0.324295 4.78296
upperback 4.50401 0.623337 1.28649
thorax -6.5105 0.210377 -1.49419
lowerneck -13.9824 -0.509366 -2.27575
upperneck 36.8884 0.279376 -1.4738
head 15.2468 -0.476156 -0.189786
rclavicle -4.7112e-014 6.16232e-015
rhumerus -34.1661 -2.84125 -8.02744
rradius 27.0028
rwrist 13.1215
rhand -23.2026 -49.1883
rfingers 7.12502
rthumb 3.24746 -79.1433
lclavicle -4.7112e-014 6.16232e-015
lhumerus -33.0056 -0.427316 2.21327
lradius 24.3536
lwrist 10.9161
lhand -24.1556 -30.5534
lfingers 7.12502
lthumb 2.32707 -0.586364
rfemur -101.608 1.67754 28.1664
rtibia 98.2544
rfoot 49.5047 3.31335
rtoes 0.968932
lfemur -30.9119 1.51491 -23.4929
ltibia 48.9424
lfoot -20.6243 13.7435
ltoes 12.7101
882
root 4.90991 16.5836 1.93584 6.30775 -15.9071 -6.49119
lowerback 20.3646 -0.356821 4.82558
upperback 4.46645 0.586445 1.30618
thorax -6.49245 0.192195 -1.48725
lowerneck -13.9922 -0.519508 -2.36407
upperneck 36.9782 0.273193 -1.42566
head 15.2933 -0.486264 -0.155878
rclavicle 1.00386e-014 -2.06736e-014
rhumerus -34.0308 -2.67376 -8.07453
rradius 26.9731
rwrist 12.895
rhand -22.9661 -49.1854
rfingers 7.12502
rthumb 3.47587 -79.1368
lclavicle 1.00386e-014 -2.06736e-014
lhumerus -33.059 -0.274236 2.17435
lradius 23.9786
lwrist 10.6269
lhand -24.0067 -31.8235
lfingers 7.12502
lthumb 2.47094 -1.8581
rfemur -101.652 1.58931 28.1701
rtibia 98.3367
rfoot 49.4064 3.19839
rtoes 0.701388
lfemur -30.9311 1.47226 -23.5163
ltibia 48.9689
lfoot -20.6378 13.7522
ltoes 12.6158
883
root 4.90882 16.5803 1.94039 6.30163 -15.9563 -6.43416
lowerback 20.2782 -0.371316 4.78493
upperback 4.42495 0.555912 1.30464
thorax -6.49427 0.177745 -1.45775
lowerneck -13.9179 -0.5119 -2.51672
upperneck 37.0708 0.284358 -1.31158
head 15.3211 -0.489283 -0.0794839
rclavicle 5.45664e-014 -1.49089e-014
rhumerus -33.8948 -2.46262 -8.1491
rradius 26.9655
rwrist 12.8412
rhand -22.7792 -49.2828
rfingers 7.12502
rthumb 3.65628 -79.2311
lclavicle 5.45664e-014 -1.49089e-014
lhumerus -33.053 -0.0166701 2.06558
lradius 23.7862
lwrist 10.3867
lhand -23.3522 -29.9488
lfingers 7.12502
lthumb 3.10298 0.00835688
rfemur -101.669 1.5987 28.079
rtibia 98.4071
rfoot 49.5073 2.68629
rtoes 1.11389
lfemur -30.9194 1.50459 -23.5887
ltibia 49.0018
lfoot -20.7447 13.7275
ltoes 12.7827
